<svg xmlns="http://www.w3.org/2000/svg" width="17.381" height="13.85" viewBox="0 0 17.381 13.85">
  <g id="Group_1113" data-name="Group 1113" transform="translate(-933.808 -297.906)">
    <g id="Group_1111" data-name="Group 1111" transform="translate(937.674 303.908)">
      <path id="Path_1529" data-name="Path 1529" d="M963.89,338.862h-9.251a.2.2,0,0,1-.2-.2v-6.951a.2.2,0,1,1,.4,0v6.753h8.854v-6.28a.2.2,0,0,1,.4,0v6.479A.2.2,0,0,1,963.89,338.862Z" transform="translate(-954.44 -331.514)" fill="#5d5d5d" stroke="#818181" stroke-width="1"/>
    </g>
    <g id="Group_1112" data-name="Group 1112" transform="translate(934.349 298.433)">
      <path id="Path_1530" data-name="Path 1530" d="M950.449,305.732a.2.2,0,0,1-.13-.049l-7.822-6.79-7.821,6.668a.2.2,0,1,1-.258-.3l7.951-6.779a.2.2,0,0,1,.259,0l7.951,6.9a.2.2,0,0,1-.13.349Z" transform="translate(-934.349 -298.433)" fill="#5d5d5d" stroke="#818181" stroke-width="1"/>
    </g>
  </g>
</svg>
