<svg xmlns="http://www.w3.org/2000/svg" width="167.247" height="169.868" viewBox="0 0 167.247 169.868">
  <g id="mac" transform="translate(-1.557)">
    <g id="Group_2076" data-name="Group 2076" transform="translate(1.557)">
      <path id="Path_1536" data-name="Path 1536" d="M158.342,0H12.01A10.465,10.465,0,0,0,1.557,10.453V120.682A10.465,10.465,0,0,0,12.01,131.133H53.345c3.066,3.979,9.27,13.526,7.1,18.064-.876,1.828-3.268,2.756-7.113,2.756-20.8,0-21.4,7.369-21.4,8.216v9.7H138.436V157.183l-.584-.443c-.256-.2-6.454-4.786-21.762-4.786-3.343,0-4.006-1.307-4.223-1.732-1.915-3.741,3.258-13.414,7.237-19.088h39.241A10.465,10.465,0,0,0,168.8,120.685V10.453A10.47,10.47,0,0,0,158.342,0ZM109.2,151.576c1.135,2.235,3.454,3.361,6.884,3.361,11.622,0,17.582,2.795,19.365,3.809v8.134H34.911l-.006-6.65c.157-1.467,3.765-5.295,18.419-5.295,5.1,0,8.393-1.5,9.809-4.454,2.728-5.7-2.918-14.907-6.071-19.353H115.5C112.391,135.887,106.434,146.176,109.2,151.576Zm56.616-30.893a7.476,7.476,0,0,1-7.475,7.466H12.01a7.468,7.468,0,0,1-7.466-7.466V10.453A7.479,7.479,0,0,1,12.01,2.984H158.342a7.485,7.485,0,0,1,7.475,7.469S165.817,120.682,165.817,120.682Z" transform="translate(-1.557)" fill="#7c7c7c"/>
      <path id="Path_1537" data-name="Path 1537" d="M12.2,111.057H161.526V12.9H12.2Zm2.991-95.171H158.545v92.189H15.195Z" transform="translate(-3.244 -2.045)" fill="#7c7c7c"/>
      <circle id="Ellipse_13" data-name="Ellipse 13" cx="4.924" cy="4.924" r="4.924" transform="translate(78.697 115.249)" fill="#7c7c7c"/>
    </g>
  </g>
</svg>
