<svg xmlns="http://www.w3.org/2000/svg" width="194.444" height="124.407" viewBox="0 0 194.444 124.407">
  <g id="notebook-computer_1_" data-name="notebook-computer (1)" transform="translate(0 -20.78)">
    <path id="Path_1532" data-name="Path 1532" d="M18.579,133.689H175.865a5.9,5.9,0,0,0,5.9-5.9V26.678a5.9,5.9,0,0,0-5.9-5.9H18.579a5.9,5.9,0,0,0-5.9,5.9V127.791A5.906,5.906,0,0,0,18.579,133.689ZM17.737,26.678a.843.843,0,0,1,.843-.843H175.865a.843.843,0,0,1,.843.843V127.791a.843.843,0,0,1-.843.843H18.579a.843.843,0,0,1-.843-.843ZM194.444,138.2v4.72a2.265,2.265,0,0,1-2.265,2.265H2.265A2.266,2.266,0,0,1,0,142.922V138.2H79.857a3.183,3.183,0,0,0,3.045,2.282h28.642a3.184,3.184,0,0,0,3.045-2.282Z" fill="#7c7c7c"/>
  </g>
</svg>
