<?xml version="1.0" encoding="utf-8"?>
<!-- Generator: Adobe Illustrator 22.0.1, SVG Export Plug-In . SVG Version: 6.00 Build 0)  -->
<svg version="1.1" id="Layer_1" xmlns="http://www.w3.org/2000/svg" xmlns:xlink="http://www.w3.org/1999/xlink" x="0px" y="0px"
	 viewBox="0 0 200 200" style="enable-background:new 0 0 200 200;" xml:space="preserve">
<style type="text/css">
	.st0{fill:#FFFFFF;}
	.st1{fill:#FFFFFF;}
</style>
<path class="st0" d="M130.1,63.8c-0.3-0.4-0.7-0.8-1.1-1.1l2.3-1.8l0.5-0.5l-0.3,0.6L130.1,63.8z M117.3,66.2
	c-0.2,0.5-0.5,1-0.5,1.7l2.5-1.4c0.1-0.5,0.3-1.2,0.7-1.9L117.3,66.2z M107,124.6L107,124.6l-0.7,2.1h1.4L107,124.6z M89.3,82.9
	c0.1,0.2,0.1,0.4,0.2,0.6L115.2,70c0-0.4-0.1-0.8,0-1.3L89.3,82.9z M116.7,84.2c0,0-0.8,2.7-1,5.1l0.8,3.3c0.1,0.3,0.3,0.6,0.5,0.5
	c0.5-0.2,0.9-0.5,0.8-1.2l0,0L116.7,84.2z M125.9,73.4c-1.9,0-3.7-1.1-4.7-2.9c-1.4-2.6-0.7-5.8,1.7-7.1c0.7-0.4,1.4-0.6,2.2-0.6
	c1.9,0,3.7,1.1,4.7,2.9c1.4,2.6,0.7,5.8-1.7,7.1C127.5,73.2,126.7,73.4,125.9,73.4L125.9,73.4z M126.1,71.6L126.1,71.6
	c0.5,0,1-0.1,1.4-0.3c0.8-0.4,1.4-1.2,1.6-2.1c0.2-0.9,0.1-1.9-0.3-2.8c-0.7-1.3-1.9-2.1-3.3-2.1c-0.5,0-1,0.1-1.4,0.3
	c-0.8,0.4-1.4,1.2-1.6,2.1c-0.2,0.9-0.1,1.9,0.3,2.8C123.5,70.8,124.8,71.6,126.1,71.6z M85,149h-1.3l-0.4-1.2h-0.5l-0.4,1.2h-1.3
	l-0.1,0.5l1,0.8l-0.4,1.2l0.4,0.3l1-0.8l1.1,0.8l0.4-0.3l-0.4-1.2l1-0.8L85,149z M118.9,149h-1.3l-0.4-1.2h-0.5l-0.4,1.2H115
	l-0.1,0.5l1,0.8l-0.4,1.2l0.4,0.3l1-0.8l1,0.8l0.4-0.3l-0.4-1.2l1-0.8L118.9,149z M111.7,149.4H110l-0.5-1.6h-0.6l-0.5,1.6h-1.7
	l-0.2,0.6l1.4,1l-0.5,1.6l0.5,0.4l1.4-1l1.4,1l0.5-0.4l-0.5-1.6l1.4-1L111.7,149.4z M93.5,149.4h-1.7l-0.5-1.6h-0.6l-0.5,1.6h-1.7
	l-0.2,0.6l1.4,1l-0.5,1.6l0.5,0.4l1.4-1l1.4,1l0.5-0.4l-0.5-1.6l1.4-1L93.5,149.4z M103.2,149.8h-2.2l-0.7-2.1h-0.8l-0.7,2.1h-2.2
	l-0.3,0.8l1.7,1.3l-0.7,2.1l0.7,0.5l1.7-1.3l1.8,1.3l0.7-0.5l-0.7-2.1l1.7-1.3L103.2,149.8z M74.2,114.9c-0.9-3.1-1.6-7.9-1.6-15
	c0-13.5,2.6-18.6,4.3-19.9c-2.3,0-5,7.4-5,19.9c0,6.5,0.7,11.6,1.7,15H74.2z M46.5,114.9c-1.3-4.7-2-9.7-2-14.9
	c0-30.6,24.9-55.5,55.5-55.5c30.6,0,55.5,24.9,55.5,55.5c0,5.2-0.7,10.1-2,14.9h-4.8c0.5-1.7,1-3.5,1.3-5.4l-4.9-0.3
	c-0.4,1.9-0.9,3.8-1.5,5.6h-1.4c0.7-1.8,1.2-3.7,1.6-5.7l-1.8-0.1c-0.4,2-1,3.9-1.7,5.8h-5.5c2-4.6,3-9.6,3-14.9
	c0-9.7-3.7-18.5-9.7-25.3l1.3-0.9c1.6-1.3,2.5-3.4,2.4-5.6l3.2-6.9l0.7-0.6l0.2-0.2l-4.9-3.9l-0.2,0.2l-0.4,0.9l-4.8,3.6
	c-0.3,0-0.5-0.1-0.8-0.1c-1,0-2,0.3-2.9,0.7c0,0-4.5,2.5-5.3,3c-0.4,0.2-0.6,0.5-0.8,0.8c-4.9-2.3-10.3-3.6-16.1-3.6
	c-20.9,0-37.9,17-37.9,37.9c0,5.3,1.1,10.3,3,14.9h-5.5c-0.7-1.8-1.2-3.7-1.6-5.6l-1.8,0.1c0.4,1.9,0.9,3.7,1.6,5.5h-1.4
	c-0.6-1.8-1.1-3.6-1.5-5.5l-4.9,0.1c0.3,1.8,0.8,3.6,1.3,5.3H46.5z M152.9,95.4l-1.2,0.4l-10.1-0.2l-1.2-0.4l-0.3,0l0.2,3.9l0.3,0
	l1.2-0.4L147,99l0.9-0.1l-0.9,0.4l-6.8,3.9l-0.2,2.6l11.6,0.2l1.2,0.4l0.3,0l0.1-3.8l-0.3,0l-1.2,0.4l-4-0.1l-0.9,0.1l0.9-0.4
	l5.6-3.2l0.1-3.9L152.9,95.4z M148.5,80.8l-8,2.2l-1,0.1l-1.7,3l1.7,6l3,1.7l0.9-0.4l8-2.2l1.3,0l0.3-0.1l-1.1-4l-0.3,0.1l-1.1,0.7
	l-2.4,0.7l-5.1,1.4c-0.4,0.1-0.8,0-0.9-0.4l-0.6-2.3c-0.1-0.4,0.1-0.7,0.5-0.9l5.1-1.4l2.4-0.7l1.3,0l0.3-0.1l-1.2-4.2l-0.3,0.1
	L148.5,80.8z M133.3,72.9l-0.8,3.4l2.9,4.6l3.4,0.8l0.7-0.7l2.4-1.5l1.1-0.1l0.3-0.2l-2.5-4l-0.3,0.2l-0.8,1.3l-1.5,1
	c-0.4,0.2-1,0.1-1.3-0.4l-0.4-0.7c-0.3-0.6-0.2-1.2,0.4-1.6l3.7-2.3c0.8-0.5,1.7-0.1,2.1,0.6l1.2,2l0.5,2l0,0l0.3,0.1l2.9-2.1
	l-0.5-0.8l-0.3-0.4l-2.9-4.6l-3.6-0.8L133.3,72.9z M109.3,60.6l7.6,2.7v0l0.6,0.2l1.7-3.2l0,0l0,0l-0.1-0.2v0l-1.8,0l-3-1.1
	l-0.2-0.4l0.5-1.4l0.2-0.1l1.1,0.4l1,0.8l0.3-0.1l1.2-3.2l-0.2-0.3v0l-1.2,0l-1.1-0.4l-0.1-0.2l0.5-1.5l0.2-0.1l3,1.1l1.1,0.9
	l0.2-0.1v0l0.6-3.3l-7.9-2.8l-0.1,0.3l-0.1,1.3l-3.4,9.5l-0.8,1L109.3,60.6z M96.7,59.8l4.2-0.2l0-0.3l-0.3-0.9l0-2.2l0.2-0.4l1-0.9
	l0.3,0l1.8,3.5l0.1,1.3l4.5,0.6l0-0.3l-0.8-1.5l-3.1-6.4l4.3-4.5l-0.4-0.4l-3.5-0.3l-0.4,1.2l-3.4,3.4l-0.4,0.4l0-3.8l0.4-1.2l0-0.3
	l-4.3,0l0,0.3l0.3,1.2l0,10.2l-0.4,1.2L96.7,59.8z M89.5,47.5l0,0.3l0.6,1.1l1.6,10l-0.2,1.2l0,0.3l4.4-0.7l0-0.3l-0.6-1.1l-1.6-10
	l0.2-1.2l0-0.3L89.5,47.5z M78.5,51l0.1,0.3l0.7,1l3.3,9.6l0,1.3l0.1,0.3l7.2-2.5l0,0l0,0l0.7-0.2l-0.7-3.5l-0.3-0.1l-1.4,1.1
	L85.8,59l-0.4-0.2l-2.6-7.5l0-1.5l-0.1-0.3L78.5,51z M63.2,61.1l0.2,0.2l1,0.7l6.3,7.9l0.5,1.2l0.2,0.2l6.3-5h0l0.5-0.4l-1.8-3.1
	l0,0h0l-0.3,0h0l-1,1.5l-2.5,2l-0.4,0l-1-1.2l0-0.3l1-0.8l1.1-0.4l0.1-0.3l-2.1-2.7l-0.3,0l0,0l-0.7,1l-1,0.8l-0.3,0l-1-1.2v-0.2
	l2.5-2l1.4-0.5l0-0.3l0,0l-2.4-2.3c0,0-0.2,0.1-0.5,0.4L63.2,61.1z M54,72.9l0.2,0.2l1.2,0.4l8.3,5.8l0.8,1l0.2,0.2l4.7-6.8L68.8,70
	l-6.5-4.5l-3.7,0.7L54,72.9z M49.1,85.4l0.3,0.1l0.9,0.1l9,5.9l0.9,1l0.3,0.1l0.9-4.1l-1.5-0.3l-0.5-0.5l-0.1-0.2l1-2.9l0.2-0.1
	l0.7-0.1l1.4,0.7l2-4l-0.3-0.1l-1.3,0.2l-10.7-1l-0.8-0.5l-0.3-0.1L49.1,85.4z M47.2,106.9l0.3,0l1.2-0.4h10.1l1.2,0.4l0.3,0
	l-0.5-3.8h-0.3l-1.2,0.4H53l-0.8,0.1l0.8-0.3l5.8-2.4v-1.3L53,97.1l-0.8-0.3l0.8,0.1h5.3l1.2,0.4h0.3l0.5-4.2H60l-1.2,0.4l-10.1,0
	l-1.2-0.4h-0.3v4.7l5.3,2.2l0.4,0.1l-0.4,0.1l-5.3,2.2V106.9z M131.9,114.9c2.1-4.5,3.3-9.6,3.3-14.9c0-6.3-1.7-12.2-4.5-17.3
	c2.3,8.6,1.9,18.6,0.7,24.9l-0.7,0l0,0c0.2-2.4,0.4-5,0.4-7.6c0-9.5-1.7-17.7-4.2-22.4c-0.1-0.3-0.3-0.5-0.4-0.7
	c-0.1-0.2-0.2-0.4-0.4-0.6c0,0-0.1,0-0.1,0.1c-0.5,0.4-1,0.7-1.4,1c-0.6,0.4-1.2,0.5-1.7,0.5c0,0,0,0,0,0c2.4,4.7,4,12.8,4,22.1
	c0,5.6-0.6,10.7-1.6,15H131.9z M76.1,105.7c0.1,0.2,0.3,0.3,0.4,0.3c0.8,0,1.4-2.7,1.4-6.1c0-2.8-0.4-5.1-1-5.9l-1.5-9.8
	c0,0-0.8,2.7-1,5.1l0.8,3.3c0.1,0.3,0.3,0.6,0.5,0.5l0.3,1l0,0c-0.4,0.5-0.7,1.7-0.8,3.3v0l-1.5-1.1c0,0-0.1,2.4-0.1,3.6
	s0.1,3.6,0.1,3.6l0.4-0.4l0,0c0.5-0.5,0.4-1.6,0.4-2.1h0.5c0.1,1.7,0.3,3.2,0.6,4.1l-1.4,5.4c0.1,1.6,0.5,3.4,0.8,4.4h0.3l1-6.2
	c0.2-1.4-0.4-1.5-0.5-1.8L76.1,105.7L76.1,105.7z M120.1,104.4c-0.2,0.9-0.4,1.6-0.7,2.2l1.2,8.3h0.3c1-3.8,1.8-9.2,1.8-15
	c0-6.2-1-12-2.1-15.8l0,0.1l-1.4,9.6c0.3,0.4,0.5,1,0.8,1.8l1.7-2.6c0.1,0.9,0.2,1.9,0.3,3.1l-1.6,1.6c0.1,0.7,0.1,1.4,0.1,2.3
	c0,0.8,0,1.6-0.1,2.3l1.6,1.6c-0.1,1.2-0.1,2.2-0.3,3.1L120.1,104.4z M56.6,86l0.2-0.1l0.6-1.6L57.3,84l-4.1-0.5l-0.7-0.1l0.6,0.3
	L56.6,86z M64.3,75.1l0.4-0.1l0.8-1.1c0.5-0.8,0.4-1.4-0.4-2l-3.5-2.5c-0.8-0.5-1.4-0.4-2,0.3L58.8,71l0,0.3L64.3,75.1z M110.2,94.6
	l3.1,0v0l0.7,0l0,0h0.1l0-1c0.4-6.1,1.5-9.7,2.6-11.8c-0.3,0.2-0.6,0.5-1,0.7c-1,2.3-1.9,6-2.3,11h-3.1H90h-0.5
	c-0.1-1.4-0.2-2.3-0.4-3.4c0-0.1,0-0.1,0-0.2c0-0.6,0.4-0.9,1.2-0.9l1.9,0c1,0,3.5,3.4,8,3.4c4.7,0,8.1-3.5,8.3-3.7l2.3,0
	c0.1-0.9,0.3-1.8,0.5-2.7h0c-1.5,1.1-2.7,2.1-3.5,2.7c0,0-3.8,2.9-7.1,2.9c-4.5,0-6.2-3.7-8.5-3.7c-0.6,0-1.7,0-2.8,0
	c-0.2,0-0.3,0-0.5,0c-0.4-2.1-0.8-4.1-1.4-5.8l0,0c-1.6-5.2-3.8-8.5-6.2-8.5c-0.1,0-0.3,0-0.4,0V73c0.1,0,0.2,0,0.4,0
	c3.4,0,6,3.4,7.6,8.4c6.7-3.6,24.4-13.3,25.2-13.7c-4.3-1.9-9-2.9-14-2.9c-9,0-17.2,3.4-23.4,8.9c0.2,0,0.3,0,0.5,0
	c4.5,0,8.6,11.8,8.6,26.3c0,5.6-0.6,10.7-1.6,15h4.1c0.6-2.7,1.1-5.8,1.4-9.2c0.1-1.9,0.2-3.8,0.2-5.8c0-1.8-0.1-3.6-0.2-5.3
	L110.2,94.6L110.2,94.6z M118.4,105.4c0.2-0.5,0.4-1.1,0.5-2c0,0,0,0,0-0.1c0,0,0,0,0,0c0.1-0.9,0.2-2,0.2-3.4v0c0,0,0,0,0,0
	c0-2.4-0.8-5.6-1.5-5.6c-0.5,0-1,0.1-1.4,0.4c1.8,0,1.9,4.6,1.9,5.5c0,0.8-0.1,4.8-1.5,5.4c0,0-0.3,0.1-0.4,0.1l-2.2,0l-2.5,0
	l-1.4,0l-2.1,0l0,0c-2.1,0-3.5,2.9-5.3,6.6c-0.4,0.8-0.8,1.7-1.3,2.6h10.1c-0.6-2.6-1-5.6-1.3-8.8l3.2,0.4c0.3,3.4,0.8,6.2,1.5,8.4
	h0.6c-0.6-2-1.1-4.7-1.4-8.3l2.5,0.3l-0.9,3.6c0.1,1.6,0.5,3.4,0.8,4.4h0.3l1-6.2c0.1-1.2-0.3-1.4-0.5-1.7
	C117.4,106.9,118,106.6,118.4,105.4z M78.7,104.3c-0.2,0.8-0.5,1.4-0.8,1.8l1.2,8.8h0.3c1-3.8,1.8-9.2,1.8-15c0-6.2-1-12-2.1-15.8
	l0,0.1L78,93.8c0.3,0.4,0.5,1,0.8,1.8l1.7-2.6c0.1,0.9,0.2,1.9,0.3,3.1l-1.6,1.6c0.1,0.7,0.1,1.4,0.1,2.3c0,0.8,0,1.6-0.1,2.3
	l1.6,1.6c-0.1,1.2-0.1,2.2-0.3,3.1L78.7,104.3z M93.7,111.4c0,0,0.9-3.5,2.4-5.7h-3l-0.1,0.4c0,0,1.2,0.1,1.4,0.4
	c-0.8,1.7-1.2,4.9-1.2,4.9H93.7z M64.8,100c0,5.3,1.2,10.4,3.3,14.9h2.1c-1-4.2-1.5-9.4-1.5-15c0-9.1,1.5-17.1,3.8-21.9
	C67.7,84.1,64.8,91.7,64.8,100z M56.3,131.1h-0.8L55,131l-0.1,0.1l0.2,1h0.1l0,0h0H57l0.8-0.8v-1.1l-0.6-0.6l-0.2,0l-0.7-0.2
	c-0.1,0-0.2-0.1-0.2-0.3c0-0.2,0.1-0.3,0.3-0.3h0.8l0.3,0.1l0.1-0.1l-0.1-0.9h-0.2h-0.1h-1.6l-0.8,0.8v1l0.5,0.5
	c0,0,0.6,0.1,0.8,0.2c0.2,0,0.3,0.2,0.3,0.4C56.5,131,56.4,131.1,56.3,131.1z M128.4,131.2l-0.2,0.7v0.2h0.5h1.5h0.5v-0.2l-0.2-0.7
	h-0.4V128h-1.1l-0.7,0.9l0.1,0.2h0.6v2.2H128.4z M133.3,130.8v-0.4l-0.4,0.2h-1l-0.7-0.7v-1.2l0.8-0.8h1.7l0.8,0.8v2.6l-0.8,0.8h-2
	l-0.3-1l0.1-0.1l0.7,0.2h0.8C133.2,131.2,133.3,131.1,133.3,130.8z M133.3,129.4v-0.2c0-0.2-0.2-0.4-0.4-0.4h-0.3
	c-0.3,0-0.4,0.2-0.4,0.4v0.2c0,0.2,0.1,0.4,0.4,0.4h0.3C133.2,129.7,133.3,129.6,133.3,129.4z M139.8,131.2l-0.3,0.7v0.2h0.5h1.5
	h0.5v-0.2l-0.2-0.7h-0.4V128h-1.1l-0.7,0.9l0.1,0.2h0.6v2.2H139.8z M136.1,128h1.8l0.8,0.8v2.6l-0.8,0.8h-1.8l-0.8-0.8v-2.6
	L136.1,128z M136.5,130.8c0,0.2,0.1,0.4,0.4,0.4h0.4c0.2,0,0.4-0.2,0.4-0.4v-1.7c0-0.3-0.1-0.4-0.4-0.4h-0.4c-0.2,0-0.4,0.1-0.4,0.4
	V130.8z M58.6,131.9v0.2H60v-0.2l-0.1-0.3v-3.2l0.1-0.3V128h-1.5v0.2l0.1,0.3v3.2L58.6,131.9z M156,117.6l1.4-0.3l-0.8,0.9l-6,8.2
	h-26.5l1.8,7.3h22.7l-0.8,1h-21.7l0.3,1.4h17l-7.6,10.3h-13.2l-1.1-1.4H78.4l-1.1,1.4H64.1l-7.6-10.3h17l0.3-1.4H52.2l-0.7-1h22.7
	l1.8-7.3H49.4l-6-8.2l-0.8-0.9l1.4,0.3H156z M111.9,129.8h5.3l0.2-1.7h-0.1c-0.3,0.2-0.8,0.2-1.7,0.2c-0.4,0-0.8,0-1.1-0.1v-4.3
	c0-0.8,0-1.1,0.2-1.6v0h-2.9v0c0.2,0.4,0.2,0.7,0.2,1.6v4.3C112.2,128.9,112.2,129.3,111.9,129.8L111.9,129.8z M106.1,122.8
	c0,0.3-0.2,0.8-0.3,1.1l-1.6,4.6c-0.2,0.6-0.2,0.8-0.6,1.3v0h2.1v0c-0.1-0.2-0.2-0.3-0.2-0.5c0-0.3,0.1-0.7,0.2-0.9l0.1-0.3l2.3,0
	c0,0,0.1,0.4,0.2,0.7c0.1,0.2,0.1,0.4,0.1,0.6c0,0.2,0,0.3-0.1,0.6v0h3v0c-0.3-0.4-0.5-0.9-0.8-1.6l-2.2-5.9H106v0
	C106,122.4,106.1,122.6,106.1,122.8z M82,120.5c0.2,0.4,0.2,1,0.2,1.9v5.8c0,0.7,0,1.1-0.2,1.6v0l3,0v0c-0.2-0.5-0.3-1.1-0.3-1.6
	c0-0.9,0-1.6,0-1.6c0,0,0.3,0,0.4,0c2.1,3.1,4.5,4.3,7,4.3c3.7,0,5.8-2.3,5.8-4.9c0-2.2-1.7-3.9-4.1-3.9c-2.4,0-4,1.5-4,3.5
	c0,3,3.2,3.4,4.3,2.5l-0.2-0.4c-1,0.2-1.8-0.5-1.8-2.2c0-1.3,0.7-2.2,1.7-2.2c1.1,0,1.8,1.1,1.8,2.8c0,1.9-1.1,3.3-3.1,3.3
	c-2.3,0-4-1.8-5.1-3.6c1.2-0.5,1.9-1.4,1.9-2.6c0-1.6-1.2-2.7-3.3-2.7L82,120.5L82,120.5z M89.7,140c-0.2-0.2-0.6-0.6-1-1.1
	c-0.1,0-0.1,0-0.2,0c-2.3,0-3.2,0.8-5.5,0.8c-0.9,0-1.5-0.2-1.5-0.2v-2.1H82c1,0,1.5,0.1,1.7,0.2h0.1v-1.7h-0.1
	c-0.2,0-0.6,0.1-1.8,0.1h-0.5v-2.2h1.3c0.6,0,1.1,0.1,1.5,0.2h0l-0.2-1.7h-5.4v0c0.2,0.4,0.2,1,0.2,1.9v5.2c0,0.7,0,1.1-0.2,1.6v0
	c0,0,1.2,0.5,3.1,0.5c3.8,0,4.5-1.6,7.5-1.7C89.5,140,89.5,140,89.7,140z M92.8,132.4h-0.7h-1.6v0c0.2,0.4,0.2,0.7,0.2,1.6l0,2.5
	l0,0l-3.4-4.1l-0.6,0l-1.5,0v0c0.2,0.4,0.2,0.7,0.2,1.6v4.1v0.5c0.5-0.1,1.2-0.3,1.8-0.4c0,0,0-2.2,0-2.2h0c0,0,2,2.3,2.5,2.8
	c0.5,0.6,0.9,1,1.3,1.2h1h0.5h0.2v0c-0.2-0.4-0.2-0.7-0.2-1.2l0-4.7C92.6,133.1,92.6,132.8,92.8,132.4L92.8,132.4z M99,133.9
	l-0.2-1.5h-5v0c0.2,0.4,0.2,0.7,0.2,1.6v4.3c0,0.7,0,1.1-0.2,1.6v0h3v0c-0.2-0.4-0.3-0.9-0.3-1.6v-0.4V137h0.2
	c0.9,0,1.3,0.1,1.6,0.2h0.1v-1.6h-0.1c-0.2,0-0.5,0.1-1.6,0.1h-0.2l0,0v-0.8v-1.3h1C98.2,133.7,98.6,133.8,99,133.9L99,133.9z
	 M102.6,132.4h-2.9v0c0.2,0.4,0.2,0.7,0.2,1.6v4.3c0,0.7,0,1.1-0.2,1.6v0h2.9v0c-0.2-0.5-0.2-0.9-0.2-1.6V134
	C102.3,133.1,102.4,132.8,102.6,132.4L102.6,132.4z M102.6,129.8c-0.2-0.4-0.3-1-0.3-1.6v-1.4l0.2-0.3l2.1-4.1v0h-2.1v0.1
	c0.1,0.1,0.2,0.2,0.2,0.5c0,0.3-0.1,0.6-0.3,0.9c-0.1,0.1-0.3,0.5-0.4,0.9c-0.1,0.2-0.4,0.9-0.4,0.9l-1.5-3.1v0h-2.6v0
	c0.3,0.3,0.5,0.5,0.6,0.9l1.4,2.7l0.4,0.8l0,0.3v1.2c0,0.6,0.1,1.1-0.2,1.6v0L102.6,129.8L102.6,129.8z M108.9,138.4L108.9,138.4
	c-0.4,0.2-0.8,0.2-1.7,0.2c-0.4,0-0.6,0-1-0.1v-1.8h0.2c0.9,0,1.3,0.1,1.6,0.2h0.1v-1.6h-0.1c-0.2,0-0.5,0.1-1.6,0.1h-0.2v0h0v-1.8
	h1c0.7,0,1.2,0.1,1.5,0.2h0l-0.2-1.5h-5v0c0.2,0.4,0.2,0.7,0.2,1.6v4.3c0,0.7,0,1.1-0.2,1.6v0h1.7h3.5L108.9,138.4z M122.5,136.7
	c0-2.6-2-4.3-4.9-4.3h-3.3v0c0.2,0.4,0.2,0.7,0.2,1.6c0,0,0,3.7,0,4.1c0.6,0.2,1.6,0.7,2.4,0.6v-5.1c0.3,0,0.5,0,0.8,0
	c1.5,0,2.2,1.2,2.2,2.8c0,2-1,3.2-2.8,3.2c-1.6,0-2.9-1-4.8-1v-2.5v-2.1c0-0.7,0.1-1.3,0.2-1.6v0h-2.9v0c0.2,0.4,0.2,0.7,0.2,1.6
	v4.3c0,0.7,0,1.1-0.2,1.6v0h1.3v0c3.1,0,4.4,1.7,6.9,1.7C120.5,141.6,122.5,139.6,122.5,136.7z M162.5,117.6l-5.7,7.8l1.1,1
	l-8.4,11.5h-1.8l-9.5,13h-6.4c-9.5,5.9-20.5,9.1-31.7,9.1c-11.2,0-22.2-3.1-31.7-9.1h-6.4l-9.5-13h-1.8l-8.4-11.5l1.1-1l-5.7-7.8
	v-3.7l3.7-2.3c-0.8-3.8-1.1-7.7-1.1-11.6c0-33,26.9-59.9,59.9-59.9c33,0,59.9,26.9,59.9,59.9c0,3.9-0.4,7.8-1.1,11.6l3.7,2.3V117.6z
	 M160.8,114.9l-4-2.4c0.9-4,1.4-8.2,1.4-12.5c0-32.1-26.1-58.2-58.2-58.2c-32.1,0-58.2,26.1-58.2,58.2c0,4.3,0.5,8.5,1.4,12.5
	l-4,2.4v2.1l6.1,8.3l-1.1,1h0l0,0l7.2,9.7h1.8l9.5,13h6c9,5.8,19.7,9.1,31.2,9.1c11.5,0,22.2-3.3,31.2-9.1h6l9.5-13h1.8l7.2-9.7l0,0
	h0l-1.1-1l6.1-8.3V114.9z M69.4,131.9v0.2H72l0.3-1l-0.1-0.1l-0.5,0.1h-1l-0.1-0.1v-0.6l0.1-0.1h0.4l0.3,0.1l0.1-0.1v-0.8l-0.1-0.1
	l-0.3,0.1h-0.4l-0.1-0.1V129l0-0.1h1l0.4,0.1l0.1-0.1l-0.3-1h-2.5v0.2l0.1,0.3v3.2L69.4,131.9z M61.1,131.9v0.2h1.3v-0.2l-0.1-0.3
	v-1.7l0-0.3l0.1,0.3l1.3,2.2h0.8v-3.7l0.2-0.3V128h-1.3v0.2l0.1,0.3v1.3l0,0.3l-0.1-0.3l-1-1.8h-1.3v0.2l0.2,0.3v3.2L61.1,131.9z
	 M67.3,128.9h0.4l0.5,0.2l0.1-0.1l-0.3-1h-1.6l-0.8,0.8v2.5l0.8,0.8h1.6l0.3-1l0,0l-0.1-0.1l-0.5,0.2h-0.4c-0.3,0-0.5-0.2-0.5-0.5
	v-1.2C66.8,129.1,67.1,128.9,67.3,128.9z M87,123.4c0-0.9-0.4-1.5-1.4-1.5h-0.8v3.5c0.1,0,0.4,0,0.5,0C86.3,125.4,87,124.5,87,123.4
	z"/>
</svg>
