<?xml version="1.0" encoding="utf-8"?>
<!-- Generator: Adobe Illustrator 22.0.1, SVG Export Plug-In . SVG Version: 6.00 Build 0)  -->
<svg version="1.1" id="Layer_1" xmlns="http://www.w3.org/2000/svg" xmlns:xlink="http://www.w3.org/1999/xlink" x="0px" y="0px"
	 viewBox="0 0 200 200" style="enable-background:new 0 0 200 200;" xml:space="preserve">
<style type="text/css">
	.st0{fill:#FFFFFF;}
	.st1{fill:#FFFFFF;}
</style>
<g>
	<g>
		<path class="st0" d="M137,149.2c-1.2,0-2.3-0.4-3.2-1.2l-31.2-27.7c-1-0.8-1.5-2-1.6-3.3c-0.1-1.3,0.4-2.5,1.2-3.5l5.4-6.1
			c1.8-2,4.8-2.1,6.7-0.4l31.2,27.7c1,0.8,1.5,2,1.6,3.3c0.1,1.3-0.4,2.5-1.2,3.5l-5.4,6.1c-0.8,1-2,1.5-3.3,1.6
			C137.2,149.2,137.1,149.2,137,149.2z"/>
	</g>
	<g>
		<path class="st0" d="M90.8,96.1L63.4,71.7c-0.4-0.4-1.1-0.3-1.5,0.1c-0.4,0.4-0.3,1.1,0.1,1.5l27.4,24.4c0.2,0.2,0.4,0.3,0.7,0.3
			c0.3,0,0.6-0.1,0.8-0.4C91.3,97.2,91.3,96.5,90.8,96.1z"/>
		<path class="st0" d="M90.1,98.5c-0.4,0-0.8-0.1-1-0.4L61.7,73.7c-0.6-0.6-0.7-1.6-0.1-2.2c0.3-0.3,0.7-0.5,1.1-0.5
			c0.4,0,0.8,0.1,1.1,0.4l27.4,24.4c0.6,0.6,0.7,1.6,0.1,2.2C91,98.3,90.6,98.5,90.1,98.5z"/>
	</g>
	<g>
		<path class="st0" d="M59.3,76.7C59.3,76.7,59.2,76.7,59.3,76.7c-0.8,0-1.5-0.4-1.9-1l-5.5-7.3c-0.7-0.9-0.7-2.2,0.1-3.1l3.2-3.6
			c0.8-0.9,2-1.1,3-0.5l8,4.5c0.6,0.4,1.1,1,1.2,1.7c0.1,0.7-0.1,1.5-0.6,2l-5.7,6.4C60.7,76.5,60,76.7,59.3,76.7z"/>
	</g>
	<g>
		<path class="st1" d="M133.7,137.1c-0.2,0-0.5-0.1-0.7-0.3l-18.3-16.2c-0.4-0.4-0.5-1.1-0.1-1.5c0.4-0.4,1.1-0.5,1.5-0.1l18.3,16.2
			c0.4,0.4,0.5,1.1,0.1,1.5C134.3,137,134,137.1,133.7,137.1z"/>
	</g>
	<g>
		<g>
			<path class="st0" d="M66.3,145.7c-1.8,0-3.5-0.7-4.8-1.9l-0.4-0.4c-1.4-1.3-2.1-3.1-2.1-4.9c0-1.9,0.7-3.7,2-5l55.6-55.6l6.9,6.9
				l-52,58.8c-1.3,1.4-3,2.2-4.9,2.3C66.4,145.7,66.4,145.7,66.3,145.7z"/>
		</g>
		<g>
			<g>
				<path class="st0" d="M130.5,87.1c-5,0-9.6-2-13.1-5.6c-6.4-6.7-6.7-17.4-0.7-24.4c3.5-4.1,8.7-6.5,14.1-6.3
					c0.6,0,1.1,0.4,1.4,0.9c0.2,0.6,0.1,1.2-0.3,1.6c-5.4,5.6-6.3,12.5-2.2,16.4c1.9,1.8,4.5,2.6,7.4,2.2c3-0.4,6.1-2.2,8.8-4.9
					l0.1-0.1c0.4-0.4,1-0.6,1.6-0.4c0.6,0.2,0.9,0.7,1,1.3l0,0c0.3,5-1.5,10-5,13.6C140.2,85.2,135.5,87.1,130.5,87.1
					C130.5,87.1,130.5,87.1,130.5,87.1z"/>
			</g>
		</g>
	</g>
</g>
</svg>
