<?xml version="1.0" encoding="utf-8"?>
<!-- Generator: Adobe Illustrator 22.0.1, SVG Export Plug-In . SVG Version: 6.00 Build 0)  -->
<svg version="1.1" id="Layer_1" xmlns="http://www.w3.org/2000/svg" xmlns:xlink="http://www.w3.org/1999/xlink" x="0px" y="0px"
	 viewBox="0 0 200 200" style="enable-background:new 0 0 200 200;" xml:space="preserve">
<style type="text/css">
	.st0{fill:#FFFFFF;}
	.st1{fill:#FFFFFF;}
</style>
<g>
	<path class="st0" d="M68.1,111.9L68.1,111.9c2.9,0,6.2,0,8.8,0v3.9c0,5-0.6,8.4-1.5,11.4v0.2h-1.2c-8.9,0-13.4-6.2-13.4-12.9
		c0-0.9,0-1.3,0-2c0-0.2,0-0.4,0-0.6v-1.3c1.2,0.8,3.9,1.1,5.1,1.2C66.6,111.9,67.4,111.9,68.1,111.9z M76.9,92.8
		c-5.2,0-10.4,0-14.4,0c-0.7,0-1.5,0-2.1-0.1c-1.2-0.1-3.9-0.4-5.1-1.2v0.6v1.1v0.3V96c0,6,3.4,12.6,13.5,12.6c0,0,3.5,0,8.2,0V92.8
		z M80.2,117.3V89.6c-3.4,0-16.8,0-16.8,0c-9.8,0-13.7-6.7-13.7-12.6v-3h49.2c8.2,0,13.8,2.1,17.4,5.8c3.1,3,4.7,7.2,4.7,12.4v0.2
		c0,7.7-3,12.1-8,15.2c0,0,1.2,1.1,2.3,2.4c1.2,1.3,2.1,1.9,3.7,1.9c0.6,0,7.2,0,12.6,0c0,0,1.5,0,2.1-0.1c1.1-0.1,4-0.4,5.2-1.2
		c0,0,0,3.1,0,4c0,6.7-4.5,12.9-13.4,12.9c0,0-7.7,0-10.3,0c-4.5,0-7.1-2.1-9.7-5.2c-1.7-2.1-9.1-11-9.1-11h-0.8v16.2H78.8v-0.2
		C79.6,124.5,80.1,121.5,80.2,117.3z M95.8,99.1h2.4c4.4,0,7.2-1.7,7.2-5.6v-0.2c0-3.3-2.6-5.2-7.2-5.2h-2.3V99.1z M150.3,77v-3
		c0,0-19,0-36.3,0c1.7,1,3.3,2.1,4.6,3.5c3.2,3.1,5.1,7.2,5.5,12.1c7.1,0,12.4,0,12.4,0C146.4,89.6,150.3,82.8,150.3,77z
		 M144.6,96.1v-4.6c-1.2,0.8-3.9,1.1-5.1,1.2c-0.6,0-1.4,0.1-2.1,0.1v0c-3.6,0-8.3,0-13.1,0c-0.1,6.5-2.1,11.4-6.3,15.2
		c0.3,0.3,0.5,0.5,0.7,0.5c6.5,0,12.4,0,12.4,0C141.2,108.6,144.6,102.1,144.6,96.1z M153.6,72.1V77c0,4.5-1.9,9.2-5.8,12.3l0,6.8
		c0,4.3-1.6,9.1-5.4,12.2v5.9c0,6.6-2.7,11.9-8,15c-4.2,2.5-26.4,15.2-26.4,15.2c-2.3,1.3-4.7,2.6-8,2.6c-3.4,0-5.7-1.2-8-2.6
		c0,0-22.1-12.8-26.4-15.2c-5.4-3.1-8-8.4-8-15v-5.9c-0.7-0.5-1.2-1.1-1.7-1.6c-2.4-2.8-3.8-6.6-3.8-10.7v-6.8
		c-3.8-3.1-5.6-7.8-5.6-12.2v-4.9c-4.3,8.4-6.8,17.8-6.8,27.9c0,33.4,27.1,60.4,60.5,60.4c33.4,0,60.5-27.1,60.5-60.4
		C160.5,89.9,158,80.4,153.6,72.1z M67.1,70.7l24.9-14.4c2.3-1.3,4.7-2.5,8-2.5c3.4,0,5.8,1.2,8,2.5l24.9,14.4l20,0
		c-10.3-18.6-30.1-31.2-52.9-31.2S57.4,52.1,47.1,70.7H67.1z"/>
</g>
</svg>
