<?xml version="1.0" encoding="utf-8"?>
<!-- Generator: Adobe Illustrator 22.0.1, SVG Export Plug-In . SVG Version: 6.00 Build 0)  -->
<svg version="1.1" id="Layer_1" xmlns="http://www.w3.org/2000/svg" xmlns:xlink="http://www.w3.org/1999/xlink" x="0px" y="0px"
	 viewBox="0 0 200 200" style="enable-background:new 0 0 200 200;" xml:space="preserve">
<style type="text/css">
	.st0{fill:#FFFFFF;}
	.st1{fill:#FFFFFF;}
</style>
<g>
	<g>
		<path class="st0" d="M175.8,71.4c-0.3,0-0.5-0.1-0.7-0.4l-7.5-11.7c-0.2-0.4-0.1-0.9,0.3-1.1c0.4-0.2,0.9-0.1,1.1,0.3l7.5,11.7
			c0.2,0.4,0.1,0.9-0.3,1.1C176.1,71.3,175.9,71.4,175.8,71.4z"/>
	</g>
	<g>
		<path class="st0" d="M166.2,69.3c-0.3,0-0.5-0.1-0.7-0.4c-0.2-0.4-0.1-0.9,0.3-1.1l11.7-7.5c0.4-0.2,0.9-0.1,1.1,0.3
			c0.2,0.4,0.1,0.9-0.3,1.1l-11.7,7.5C166.5,69.3,166.3,69.3,166.2,69.3z"/>
	</g>
</g>
<g>
	<path class="st0" d="M98.5,65c-2.8,0-5.5,0.3-8.1,0.8c0.9,1.2,1.7,2.4,2.5,3.7c0.2,0.4,0.1,0.9-0.3,1.1c-0.1,0.1-0.3,0.1-0.4,0.1
		c-0.3,0-0.6-0.1-0.7-0.4c-0.8-1.4-1.8-2.8-2.8-4.1c0,0,0-0.1,0-0.1C71.6,70.7,59,86.1,59,104.5c0,21.8,17.7,39.5,39.5,39.5
		c21.8,0,39.5-17.7,39.5-39.5C137.9,82.7,120.2,65,98.5,65z M98.1,83.9c0.1,0.7,0.3,1.3,0.4,2c0.2,1,0.3,2,0.5,3c0,0,0,0,0,0
		c-0.6-0.2-1.1-0.2-1.7,0c-0.1-0.9-0.3-1.9-0.4-2.8c-0.1-0.6-0.2-1.3-0.4-1.9c-0.1-0.4,0.2-0.9,0.6-1C97.6,83.2,98.1,83.5,98.1,83.9
		z M94,73.7c0.4-0.2,0.9,0,1.1,0.4c0.7,1.5,1.3,3.2,1.8,4.8c0.1,0.4-0.1,0.9-0.5,1c-0.1,0-0.2,0-0.2,0c-0.4,0-0.7-0.2-0.8-0.6
		c-0.5-1.6-1.1-3.2-1.7-4.6C93.4,74.4,93.6,73.9,94,73.7z M74.9,130.6c-0.6,0-1.1-0.2-1.7-0.2c-1.1,0-2.2,0-3.3,0
		c-0.5,0-0.8-0.4-0.8-0.8c0-0.5,0.3-0.5,0.8-0.5c1.7,0,3.3,0.4,5,0.4h0c0.4,0,0.8,0,0.8,0.5C75.7,130.4,75.4,130.6,74.9,130.6z
		 M85,129.1c-1.5,0.4-3.2,0.8-5,1c0,0-0.1,0-0.1,0c-0.4,0-0.8-0.3-0.8-0.7c-0.1-0.5,0.3-0.9,0.7-0.9c1.8-0.2,3.3-0.5,4.8-0.9
		c0.4-0.1,0.9,0.1,1,0.6C85.7,128.5,85.5,129,85,129.1z M93.8,123.6c-1.1,1.3-2.5,2.5-4,3.4c-0.1,0.1-0.3,0.1-0.4,0.1
		c-0.3,0-0.5-0.1-0.7-0.4c-0.2-0.4-0.1-0.9,0.3-1.1c1.4-0.8,2.6-1.9,3.6-3.1c0.3-0.3,0.8-0.4,1.2-0.1
		C94,122.7,94.1,123.2,93.8,123.6z M118.3,85.8l-12.1,26c-0.1,0.2-0.3,0.4-0.4,0.4l-8,3.7c-0.2,0.5-0.3,1-0.5,1.5
		c-0.2,0.6-0.5,1.2-0.7,1.7c-0.1,0.3-0.4,0.5-0.7,0.5c-0.1,0-0.2,0-0.3-0.1c-0.4-0.2-0.6-0.7-0.4-1.1c0.2-0.5,0.4-1,0.6-1.5
		l-15.9,7.3c-0.7,0.3-1.5-0.5-1.2-1.2l12.1-26c0.1-0.2,0.3-0.3,0.4-0.4l26-12.1C118,84.4,118.7,84.7,118.3,85.8z"/>
	<path class="st0" d="M97.7,113.3c0.3,0.1,0.4,0.3,0.5,0.5l6.5-3l10.9-23.4L92.2,98.2l-10.9,23.4l15.2-7.1c0.1-0.2,0.1-0.5,0.2-0.7
		C96.8,113.4,97.3,113.2,97.7,113.3z M95.9,107c-1.4-1.4-1.4-3.7,0-5.1c0.7-0.7,1.6-1,2.6-1c0.9,0,1.8,0.3,2.6,1
		c1.4,1.4,1.4,3.7,0,5.1C99.6,108.4,97.3,108.4,95.9,107z"/>
	<path class="st0" d="M160.2,63.7c-0.4,0-0.9,0.3-0.9,0.8c-0.1,0.8-0.2,1.6-0.4,2.3c-0.1,0.4,0.2,0.9,0.6,1c0.1,0,0.1,0,0.2,0
		c0.4,0,0.7-0.3,0.8-0.6c0.2-0.8,0.3-1.7,0.4-2.6C161,64.2,160.7,63.8,160.2,63.7z"/>
	<path class="st0" d="M43,65.7c0-0.7,0.1-1.3,0.2-2c0.1-0.4-0.2-0.9-0.6-1c-0.4-0.1-0.9,0.2-1,0.6c-0.2,0.8-0.2,1.5-0.2,2.3
		c0,1.1,0.2,2.1,0.5,3.1c0.1,0.4,0.4,0.6,0.8,0.6c0.1,0,0.2,0,0.3,0c0.4-0.1,0.7-0.6,0.5-1C43.1,67.4,43,66.6,43,65.7z"/>
	<path class="st0" d="M47.4,147.4c-0.1-0.5-0.5-0.7-1-0.7c-0.4,0.1-0.7,0.5-0.7,1c0.3,1.6,0.9,3.3,1.6,5c0.1,0.3,0.4,0.5,0.7,0.5
		c0.1,0,0.2,0,0.3-0.1c0.4-0.2,0.6-0.7,0.4-1.1C48.2,150.5,47.7,148.9,47.4,147.4z"/>
	<path class="st0" d="M45.2,59.6c0.3-0.4,0.7-0.7,1-1.1c0.8-0.7,1.7-1.3,2.6-1.9c0.4-0.2,0.5-0.7,0.3-1.1c-0.2-0.4-0.7-0.5-1.1-0.3
		c-1,0.6-2,1.3-2.9,2.1c-0.4,0.4-0.9,0.8-1.2,1.3c-0.3,0.4-0.2,0.9,0.1,1.2c0.2,0.1,0.3,0.2,0.5,0.2C44.8,59.9,45,59.8,45.2,59.6z"
		/>
	<path class="st0" d="M50.7,74.8c0.1-0.4-0.2-0.9-0.6-1c-0.4-0.1-0.8-0.2-1.2-0.3c-1.1-0.3-2.1-0.8-3-1.5c-0.4-0.3-0.9-0.2-1.2,0.1
		s-0.2,0.9,0.1,1.2c1,0.8,2.2,1.4,3.6,1.8c0.4,0.1,0.9,0.2,1.3,0.3c0.1,0,0.1,0,0.2,0C50.3,75.5,50.6,75.2,50.7,74.8z"/>
	<path class="st0" d="M46.4,143.4c0.4,0,0.8-0.3,0.8-0.7c0.2-1.6,0.7-3.1,1.4-4.5c0.2-0.4,0.1-0.9-0.3-1.1c-0.4-0.2-0.9-0.1-1.1,0.3
		c-0.8,1.6-1.3,3.3-1.6,5.1c-0.1,0.5,0.3,0.9,0.7,0.9C46.4,143.4,46.4,143.4,46.4,143.4z"/>
	<path class="st0" d="M63.4,163.7c-1.6-0.4-3.2-0.9-4.6-1.6c-0.4-0.2-0.9,0-1.1,0.4c-0.2,0.4,0,0.9,0.4,1.1c1.5,0.7,3.1,1.3,4.9,1.7
		c0.1,0,0.1,0,0.2,0c0.4,0,0.7-0.3,0.8-0.6C64.1,164.3,63.8,163.8,63.4,163.7z"/>
	<path class="st0" d="M64.9,128.6l-1.1,0c-1.4,0-2.7,0.1-4,0.3c-0.4,0.1-0.8,0.5-0.7,1c0.1,0.4,0.4,0.7,0.8,0.7c0,0,0.1,0,0.1,0
		c1.2-0.2,2.5-0.3,3.7-0.3l1.1,0c0.4,0,0.8-0.4,0.8-0.8C65.8,129,65.4,128.6,64.9,128.6z"/>
	<path class="st0" d="M54.8,130.4c-1.7,0.7-3.1,1.7-4.4,2.8c-0.3,0.3-0.4,0.8-0.1,1.2c0.2,0.2,0.4,0.3,0.6,0.3
		c0.2,0,0.4-0.1,0.5-0.2c1.1-1,2.5-1.9,4-2.6c0.4-0.2,0.6-0.7,0.4-1.1C55.7,130.4,55.3,130.2,54.8,130.4z"/>
	<path class="st0" d="M51.4,156.2c-0.3-0.4-0.8-0.4-1.2-0.2c-0.4,0.3-0.4,0.8-0.2,1.2c1.1,1.4,2.3,2.7,3.6,3.7
		c0.2,0.1,0.3,0.2,0.5,0.2c0.2,0,0.5-0.1,0.6-0.3c0.3-0.4,0.2-0.9-0.1-1.2C53.5,158.6,52.4,157.5,51.4,156.2z"/>
	<path class="st0" d="M89.9,65.3c-0.3-0.4-0.8-0.4-1.2-0.1c-0.3,0.3-0.4,0.7-0.2,1.1c0.6-0.1,1.2-0.3,1.7-0.4
		C90.2,65.7,90,65.5,89.9,65.3z"/>
	<path class="st0" d="M73.1,164.6c-1.7,0-3.3,0-4.9-0.1c-0.4,0-0.9,0.3-0.9,0.8c0,0.5,0.3,0.9,0.7,0.9c1.2,0.1,2.5,0.2,3.8,0.2
		c0.4,0,0.8,0,1.2,0c0.5,0,0.8-0.4,0.8-0.9C73.9,165,73.5,164.6,73.1,164.6z"/>
	<path class="st0" d="M53.1,54.9c0.1,0,0.1,0,0.2,0c1.5-0.4,3.1-0.7,4.8-0.8c0.5,0,0.8-0.4,0.8-0.9c0-0.5-0.5-0.8-0.9-0.8
		c-1.8,0.1-3.5,0.4-5.1,0.8c-0.4,0.1-0.7,0.6-0.6,1C52.4,54.7,52.7,54.9,53.1,54.9z"/>
	<path class="st0" d="M89.9,42.3c0.2,0,0.3,0,0.5-0.2c1.3-0.9,2.7-1.8,4.2-2.4c0.4-0.2,0.6-0.7,0.4-1.1c-0.2-0.4-0.7-0.6-1.1-0.4
		c-1.6,0.7-3.1,1.6-4.4,2.6c-0.4,0.3-0.5,0.8-0.2,1.2C89.4,42.2,89.6,42.3,89.9,42.3z"/>
	<path class="st0" d="M71.5,66.1c0.2,0,0.5-0.1,0.6-0.3c1-1.2,2-2.5,3.1-4c0.3-0.4,0.2-0.9-0.2-1.2c-0.4-0.3-0.9-0.2-1.1,0.2
		c-1.1,1.5-2.1,2.8-3,3.9c-0.3,0.4-0.2,0.9,0.1,1.2C71.1,66,71.3,66.1,71.5,66.1z"/>
	<path class="st0" d="M67.5,68.3c-1.3,1.2-2.5,2.2-3.8,3c-0.4,0.3-0.5,0.8-0.2,1.1c0.2,0.2,0.4,0.4,0.7,0.4c0.2,0,0.3,0,0.4-0.1
		c1.3-0.9,2.7-2,4-3.2c0.3-0.3,0.3-0.8,0-1.2C68.4,68,67.8,68,67.5,68.3z"/>
	<path class="st0" d="M54,75.3c0,0.4,0.4,0.9,0.8,0.9h0c1.7,0,3.5-0.5,5.1-1c0.4-0.1,0.7-0.7,0.5-1.2s-0.6-0.7-1-0.5
		c-1.5,0.5-3.1,0.8-4.6,0.9C54.3,74.4,54,74.8,54,75.3z"/>
	<path class="st0" d="M62.9,54.1c1.6,0.1,3.2,0.3,4.9,0.6c0,0,0.1,0,0.1,0c0.4,0,0.7-0.3,0.8-0.7c0.1-0.5-0.2-0.9-0.7-1
		c-1.7-0.3-3.4-0.5-5-0.6c-0.4,0-0.8,0.3-0.9,0.8C62.1,53.7,62.5,54.1,62.9,54.1z"/>
	<path class="st0" d="M150,77.1c-1.5,0.6-3,0.9-4.6,0.9c-0.5,0-0.8,0.4-0.8,0.8c0,0.4,0.4,0.7,0.8,0.7h0c1.8,0,3.5-0.3,5.1-0.9
		c0.4-0.2,0.6-0.5,0.5-1C150.9,77.2,150.4,76.9,150,77.1z"/>
	<path class="st0" d="M118.2,42.9c0.7,0.8,1.4,1.6,2,2.6c0.2,0.2,0.4,0.4,0.7,0.4c0.2,0,0.3,0,0.5-0.1c0.4-0.3,0.5-0.8,0.2-1.2
		c-0.7-1-1.4-1.9-2.1-2.8c-0.4-0.4-0.8-0.8-1.2-1.2c-0.3-0.3-0.9-0.3-1.2,0.1c-0.3,0.3-0.3,0.9,0.1,1.2
		C117.5,42.1,117.9,42.5,118.2,42.9z"/>
	<path class="st0" d="M124,54.5c0.1,0.4,0.4,0.6,0.8,0.6c0.1,0,0.2,0,0.2,0c0.4-0.1,0.7-0.6,0.5-1c-0.6-1.9-1.1-3.5-1.7-4.8
		c-0.2-0.4-0.7-0.6-1.1-0.5c-0.4,0.2-0.6,0.7-0.4,1.1C123,51.1,123.5,52.6,124,54.5z"/>
	<path class="st0" d="M98.9,38.1c0.1,0,0.1,0,0.2,0c1.6-0.4,3.2-0.7,4.8-0.7c0.5,0,0.8-0.4,0.8-0.9c0-0.5-0.3-0.8-0.9-0.8
		c-1.7,0.1-3.4,0.4-5.1,0.8c-0.4,0.1-0.7,0.6-0.6,1C98.2,37.9,98.5,38.1,98.9,38.1z"/>
	<path class="st0" d="M140.7,77.5c-1.5-0.4-2.9-1.1-4.3-2c-0.4-0.3-0.9-0.2-1.1,0.2c-0.3,0.4-0.2,0.9,0.2,1.2c1.5,1,3.1,1.8,4.7,2.3
		c0.1,0,0.2,0,0.2,0c0.4,0,0.7-0.2,0.8-0.6C141.4,78.1,141.1,77.6,140.7,77.5z"/>
	<path class="st0" d="M158.3,71c-0.4-0.2-0.9-0.1-1.1,0.3c-0.8,1.3-1.9,2.5-3.1,3.5c-0.4,0.3-0.4,0.8-0.1,1.2
		c0.2,0.2,0.4,0.3,0.6,0.3c0.2,0,0.4-0.1,0.5-0.2c1.4-1.1,2.5-2.5,3.5-4C158.8,71.7,158.7,71.2,158.3,71z"/>
	<path class="st0" d="M125.4,59.3c0.4,1.6,0.9,3.2,1.5,4.9c0.1,0.3,0.4,0.6,0.8,0.6c0.1,0,0.2,0,0.3,0c0.4-0.1,0.7-0.6,0.5-1.1
		c-0.5-1.6-1-3.2-1.4-4.8c-0.1-0.4-0.6-0.7-1-0.6C125.5,58.4,125.3,58.9,125.4,59.3z"/>
	<path class="st0" d="M131.6,73.3c0.2,0.2,0.4,0.3,0.6,0.3c0.2,0,0.4-0.1,0.5-0.2c0.3-0.3,0.4-0.8,0.1-1.2c-1-1.2-1.8-2.5-2.6-4
		c-0.2-0.4-0.7-0.6-1.1-0.4c-0.4,0.2-0.6,0.7-0.4,1.1C129.6,70.6,130.6,72,131.6,73.3z"/>
	<path class="st0" d="M108.6,37.7c1.6,0.3,3.1,0.8,4.5,1.5c0.1,0.1,0.2,0.1,0.4,0.1c0.3,0,0.6-0.2,0.7-0.5c0.2-0.4,0-0.9-0.4-1.1
		c-1.5-0.7-3.2-1.3-4.9-1.6c-0.4-0.1-0.9,0.2-1,0.7C107.9,37.1,108.2,37.6,108.6,37.7z"/>
	<path class="st0" d="M81.5,59.8c1.3,0.9,2.6,1.9,3.8,3c0.2,0.1,0.4,0.2,0.6,0.2c0.2,0,0.4-0.1,0.6-0.3c0.3-0.3,0.3-0.9-0.1-1.2
		c-1.3-1.2-2.6-2.2-4.1-3.2c-0.4-0.2-0.9-0.1-1.1,0.3C81,59,81.1,59.5,81.5,59.8z"/>
	<path class="st0" d="M82.9,163.6c-1.7,0.3-3.3,0.5-4.9,0.7c-0.5,0.1-0.8,0.5-0.7,0.9c0,0.4,0.4,0.7,0.8,0.7c0,0,0.1,0,0.1,0
		c1.6-0.2,3.3-0.4,5-0.7c0.4-0.1,0.7-0.5,0.7-1C83.7,163.8,83.3,163.5,82.9,163.6z"/>
	<path class="st0" d="M72.6,55.9c1.4,0.4,2.8,0.9,4,1.4c0,0.2,0.2,0.4,0.3,0.5c0.1,0.1,0.3,0.1,0.5,0.1c0.3,0,0.5-0.1,0.7-0.4
		c0.6-0.9,1.2-1.8,1.8-2.7l1-1.5c0.3-0.4,0.1-0.9-0.2-1.2c-0.4-0.3-0.9-0.2-1.1,0.2l-1,1.5c-0.4,0.6-0.8,1.2-1.2,1.9
		c-1.4-0.6-2.8-1.1-4.3-1.5c-0.4-0.1-0.9,0.1-1,0.6C71.9,55.3,72.1,55.7,72.6,55.9z"/>
	<path class="st0" d="M97.7,113.3c-0.4-0.1-0.9,0.1-1,0.6c-0.1,0.2-0.1,0.5-0.2,0.7l1.8-0.8C98.1,113.5,98,113.3,97.7,113.3z"/>
	<path class="st0" d="M83,49.6c0.3,0,0.5-0.1,0.7-0.3c0.5-0.8,1.1-1.5,1.6-2.2c0.4-0.6,0.9-1.1,1.4-1.6c0.3-0.3,0.3-0.9,0-1.2
		c-0.3-0.3-0.8-0.3-1.2,0c-0.5,0.6-1,1.1-1.5,1.8c-0.6,0.7-1.1,1.5-1.7,2.3c-0.3,0.4-0.2,0.9,0.2,1.2C82.7,49.5,82.8,49.6,83,49.6z"
		/>
	<path class="st0" d="M92.5,161.3c-1.5,0.4-3.1,0.9-4.8,1.3c-0.4,0.1-0.7,0.6-0.6,1c0.1,0.4,0.4,0.6,0.8,0.6c0.1,0,0.1,0,0.2,0
		c1.7-0.4,3.3-0.8,4.9-1.3c0.4-0.1,0.7-0.6,0.6-1C93.4,161.4,92.9,161.2,92.5,161.3z"/>
	<path class="st0" d="M99.8,159c-0.8,0.3-1.6,0.5-2.3,0.8c-0.4,0.1-0.7,0.6-0.5,1c0.1,0.4,0.4,0.6,0.8,0.6c0.1,0,0.2,0,0.3,0
		c0.8-0.3,1.6-0.5,2.4-0.8c0.4-0.1,0.7-0.6,0.5-1.1C100.7,159.1,100.3,158.8,99.8,159z"/>
</g>
</svg>
